<?xml version="1.0" encoding="UTF-8" standalone="yes"?><svg xmlns="http://www.w3.org/2000/svg" xmlns:xlink="http://www.w3.org/1999/xlink" height="885px" style="width:726px;height:885px;" version="1.1" viewBox="0 0 726 885" width="726px"><defs><filter height="300%" id="f1" width="300%" x="-1" y="-1"><feGaussianBlur result="blurOut" stdDeviation="2.0"/><feColorMatrix in="blurOut" result="blurOut2" type="matrix" values="0 0 0 0 0 0 0 0 0 0 0 0 0 0 0 0 0 0 .4 0"/><feOffset dx="4.0" dy="4.0" in="blurOut2" result="blurOut3"/><feBlend in="SourceGraphic" in2="blurOut3" mode="normal"/></filter></defs><g><text fill="#888888" font-family="sans-serif" font-size="10" lengthAdjust="spacingAndGlyphs" textLength="102" x="617.5" y="20.3809">Author: Eric Sherman</text><text fill="#000000" font-family="sans-serif" font-size="18" lengthAdjust="spacingAndGlyphs" textLength="339" x="195.25" y="41.2637">Proposed Data Pipeline for Bulk Geocoder</text><ellipse cx="311" cy="55.2188" fill="#000000" filter="url(#f1)" rx="10" ry="10" style="stroke: none; stroke-width: 1.0;"/><polygon fill="#FBFB77" filter="url(#f1)" points="114.5,89.5898,114.5,115.9414,250.5,115.9414,250.5,99.5898,240.5,89.5898,114.5,89.5898" style="stroke: #A80036; stroke-width: 1.0;"/><polygon fill="#FBFB77" points="114.5,89.5898,114.5,115.9414,250.5,115.9414,250.5,107.5898,270.5,102.7656,250.5,99.5898,250.5,99.5898,240.5,89.5898,114.5,89.5898" style="stroke: #A80036; stroke-width: 1.0;"/><line style="stroke: #A80036; stroke-width: 1.0;" x1="240.5" x2="240.5" y1="89.5898" y2="99.5898"/><line style="stroke: #A80036; stroke-width: 1.0;" x1="250.5" x2="240.5" y1="99.5898" y2="99.5898"/><text fill="#000000" font-family="sans-serif" font-size="13" lengthAdjust="spacingAndGlyphs" textLength="115" x="120.5" y="108.085">Most likely flat files.</text><rect fill="#FEFECE" filter="url(#f1)" height="35.0938" rx="12.5" ry="12.5" style="stroke: #A80036; stroke-width: 1.5;" width="81" x="270.5" y="85.2188"/><text fill="#000000" font-family="sans-serif" font-size="12" lengthAdjust="spacingAndGlyphs" textLength="61" x="280.5" y="107.6758">Client Data</text><rect fill="#FFFFFF" filter="url(#f1)" height="259.3789" style="stroke: #000000; stroke-width: 2.0;" width="491" x="228.5" y="130.8887"/><path d="M282.5,131.8887 L282.5,141.6348 L272.5,151.6348 L228.5,151.6348 " fill="#FFFFFF" style="stroke: #000000; stroke-width: 2.0;"/><text fill="#000000" font-family="Serif" font-size="14" lengthAdjust="spacingAndGlyphs" textLength="44" x="231.5" y="146.5586">Python;</text><polygon fill="#FBFB77" filter="url(#f1)" points="500.5,158.6348,500.5,184.9863,709.5,184.9863,709.5,168.6348,699.5,158.6348,500.5,158.6348" style="stroke: #A80036; stroke-width: 1.0;"/><line style="stroke: #A80036; stroke-width: 1.0;" x1="699.5" x2="699.5" y1="158.6348" y2="168.6348"/><line style="stroke: #A80036; stroke-width: 1.0;" x1="709.5" x2="699.5" y1="168.6348" y2="168.6348"/><text fill="#000000" font-family="sans-serif" font-size="13" lengthAdjust="spacingAndGlyphs" textLength="114" x="506.5" y="177.1299">Will use the Python</text><a target="_top" xlink:href="https://pypi.python.org/pypi/luigi" xlink:title="https://pypi.python.org/pypi/luigi"><text fill="#0000FF" font-family="sans-serif" font-size="13" lengthAdjust="spacingAndGlyphs" text-decoration="underline" textLength="70" x="624.5" y="177.1299">Luigi Library</text><line style="stroke: #0000FF; stroke-width: 1.0;" x1="624.5" x2="694.5" y1="179.1299" y2="179.1299"/></a><rect fill="#FEFECE" filter="url(#f1)" height="35.0938" rx="12.5" ry="12.5" style="stroke: #A80036; stroke-width: 1.5;" width="79" x="271.5" y="194.9863"/><text fill="#000000" font-family="sans-serif" font-size="12" lengthAdjust="spacingAndGlyphs" textLength="59" x="281.5" y="217.4434">Fetch Data</text><polygon fill="#FBFB77" filter="url(#f1)" points="357.5,269.4512,357.5,295.8027,709.5,295.8027,709.5,279.4512,699.5,269.4512,357.5,269.4512" style="stroke: #A80036; stroke-width: 1.0;"/><polygon fill="#FBFB77" points="357.5,269.4512,357.5,278.627,337.5,282.627,357.5,286.627,357.5,295.8027,709.5,295.8027,709.5,279.4512,699.5,269.4512,357.5,269.4512" style="stroke: #A80036; stroke-width: 1.0;"/><line style="stroke: #A80036; stroke-width: 1.0;" x1="699.5" x2="699.5" y1="269.4512" y2="279.4512"/><line style="stroke: #A80036; stroke-width: 1.0;" x1="709.5" x2="699.5" y1="279.4512" y2="279.4512"/><text fill="#000000" font-family="sans-serif" font-size="13" lengthAdjust="spacingAndGlyphs" textLength="331" x="363.5" y="287.9463">This step may be optional/consolidated into the next step</text><rect fill="#FEFECE" filter="url(#f1)" height="35.0938" rx="12.5" ry="12.5" style="stroke: #A80036; stroke-width: 1.5;" width="53" x="284.5" y="265.0801"/><text fill="#000000" font-family="sans-serif" font-size="12" lengthAdjust="spacingAndGlyphs" textLength="33" x="294.5" y="287.5371">Clean</text><polygon fill="#FBFB77" filter="url(#f1)" points="403.5,339.5449,403.5,365.8965,476.5,365.8965,476.5,349.5449,466.5,339.5449,403.5,339.5449" style="stroke: #A80036; stroke-width: 1.0;"/><polygon fill="#FBFB77" points="403.5,339.5449,403.5,348.7207,383.5,352.7207,403.5,356.7207,403.5,365.8965,476.5,365.8965,476.5,349.5449,466.5,339.5449,403.5,339.5449" style="stroke: #A80036; stroke-width: 1.0;"/><line style="stroke: #A80036; stroke-width: 1.0;" x1="466.5" x2="466.5" y1="339.5449" y2="349.5449"/><line style="stroke: #A80036; stroke-width: 1.0;" x1="476.5" x2="466.5" y1="349.5449" y2="349.5449"/><a target="_top" xlink:href="https://github.com/openvenues/pypostal" xlink:title="https://github.com/openvenues/pypostal"><text fill="#0000FF" font-family="sans-serif" font-size="13" lengthAdjust="spacingAndGlyphs" text-decoration="underline" textLength="48" x="409.5" y="358.04">libpostal</text><line style="stroke: #0000FF; stroke-width: 1.0;" x1="409.5" x2="457.5" y1="360.04" y2="360.04"/></a><rect fill="#FEFECE" filter="url(#f1)" height="35.0938" rx="12.5" ry="12.5" style="stroke: #A80036; stroke-width: 1.5;" width="145" x="238.5" y="335.1738"/><text fill="#000000" font-family="sans-serif" font-size="12" lengthAdjust="spacingAndGlyphs" textLength="125" x="248.5" y="357.6309">Address Normalization</text><rect fill="#FFFFFF" filter="url(#f1)" height="382.9492" style="stroke: #000000; stroke-width: 2.0;" width="694" x="10" y="400.8438"/><path d="M125,401.8438 L125,411.5898 L115,421.5898 L10,421.5898 " fill="#FFFFFF" style="stroke: #000000; stroke-width: 2.0;"/><text fill="#000000" font-family="Serif" font-size="14" lengthAdjust="spacingAndGlyphs" textLength="105" x="13" y="416.5137">Postgres+PostGIS</text><rect fill="#FEFECE" filter="url(#f1)" height="35.0938" rx="12.5" ry="12.5" style="stroke: #A80036; stroke-width: 1.5;" width="150" x="236" y="438.5898"/><text fill="#000000" font-family="sans-serif" font-size="12" lengthAdjust="spacingAndGlyphs" textLength="130" x="246" y="461.0469">Load into Relational DB</text><polygon fill="#FEFECE" filter="url(#f1)" points="234,508.6836,388,508.6836,400,520.6836,388,532.6836,234,532.6836,222,520.6836,234,508.6836" style="stroke: #A80036; stroke-width: 1.5;"/><text fill="#000000" font-family="sans-serif" font-size="11" lengthAdjust="spacingAndGlyphs" textLength="154" x="234" y="525.1846">Address previously Geocoded?</text><text fill="#000000" font-family="sans-serif" font-size="11" lengthAdjust="spacingAndGlyphs" textLength="18" x="204" y="518.2666">yes</text><text fill="#000000" font-family="sans-serif" font-size="11" lengthAdjust="spacingAndGlyphs" textLength="12" x="400" y="518.2666">no</text><rect fill="#FEFECE" filter="url(#f1)" height="35.0938" rx="12.5" ry="12.5" style="stroke: #A80036; stroke-width: 1.5;" width="148" x="133" y="554.2836"/><text fill="#000000" font-family="sans-serif" font-size="12" lengthAdjust="spacingAndGlyphs" textLength="128" x="143" y="576.7406">Read From Cached DB</text><polygon fill="#FBFB77" filter="url(#f1)" points="470,554.2836,470,629.6898,694,629.6898,694,564.2836,684,554.2836,470,554.2836" style="stroke: #A80036; stroke-width: 1.0;"/><polygon fill="#FBFB77" points="470,554.2836,470,587.9867,450,591.9867,470,595.9867,470,629.6898,694,629.6898,694,564.2836,684,554.2836,470,554.2836" style="stroke: #A80036; stroke-width: 1.0;"/><line style="stroke: #A80036; stroke-width: 1.0;" x1="684" x2="684" y1="554.2836" y2="564.2836"/><line style="stroke: #A80036; stroke-width: 1.0;" x1="694" x2="684" y1="564.2836" y2="564.2836"/><ellipse cx="481.5" cy="568.1352" fill="#000000" rx="2.5" ry="2.5" style="stroke: #000000; stroke-width: 0.0;"/><text fill="#000000" font-family="sans-serif" font-size="13" lengthAdjust="spacingAndGlyphs" textLength="190" x="489" y="572.7787">Read from normalized input table</text><ellipse cx="481.5" cy="584.4867" fill="#000000" rx="2.5" ry="2.5" style="stroke: #000000; stroke-width: 0.0;"/><text fill="#000000" font-family="sans-serif" font-size="13" lengthAdjust="spacingAndGlyphs" textLength="90" x="489" y="589.1303">Parse rows into</text><a target="_top" xlink:href="https://github.com/pelias/api" xlink:title="https://github.com/pelias/api"><text fill="#0000FF" font-family="sans-serif" font-size="13" lengthAdjust="spacingAndGlyphs" text-decoration="underline" textLength="36" x="583" y="589.1303">Pelias</text><line style="stroke: #0000FF; stroke-width: 1.0;" x1="583" x2="619" y1="591.1303" y2="591.1303"/></a><text fill="#000000" font-family="sans-serif" font-size="13" lengthAdjust="spacingAndGlyphs" textLength="52" x="623" y="589.1303">API calls</text><ellipse cx="481.5" cy="600.8383" fill="#000000" rx="2.5" ry="2.5" style="stroke: #000000; stroke-width: 0.0;"/><text fill="#000000" font-family="sans-serif" font-size="13" lengthAdjust="spacingAndGlyphs" textLength="21" x="489" y="605.4818">Get</text><a target="_top" xlink:href="http://geojson.org/" xlink:title="http://geojson.org/"><text fill="#0000FF" font-family="sans-serif" font-size="13" lengthAdjust="spacingAndGlyphs" text-decoration="underline" textLength="58" x="514" y="605.4818">GeoJSON</text><line style="stroke: #0000FF; stroke-width: 1.0;" x1="514" x2="572" y1="607.4818" y2="607.4818"/></a><text fill="#000000" font-family="sans-serif" font-size="13" lengthAdjust="spacingAndGlyphs" textLength="36" x="576" y="605.4818">output</text><rect fill="#000000" height="3.5" style="stroke: #000000; stroke-width: 0.0;" width="3.5" x="497" y="616.6898"/><text fill="#000000" font-family="sans-serif" font-size="13" lengthAdjust="spacingAndGlyphs" textLength="148" x="502" y="621.8334">Parse/Process GeoJSON</text><rect fill="#FEFECE" filter="url(#f1)" height="35.0938" rx="12.5" ry="12.5" style="stroke: #A80036; stroke-width: 1.5;" width="70" x="380" y="574.4398"/><text fill="#000000" font-family="sans-serif" font-size="12" lengthAdjust="spacingAndGlyphs" textLength="50" x="390" y="596.8969">Geocode</text><polygon fill="#FEFECE" filter="url(#f1)" points="311,662.0898,323,674.0898,311,686.0898,299,674.0898,311,662.0898" style="stroke: #A80036; stroke-width: 1.5;"/><polygon fill="#FBFB77" filter="url(#f1)" points="20,721.0898,20,763.793,235,763.793,235,731.0898,225,721.0898,20,721.0898" style="stroke: #A80036; stroke-width: 1.0;"/><polygon fill="#FBFB77" points="20,721.0898,20,763.793,235,763.793,235,746.4414,255,742.4414,235,738.4414,235,731.0898,225,721.0898,20,721.0898" style="stroke: #A80036; stroke-width: 1.0;"/><line style="stroke: #A80036; stroke-width: 1.0;" x1="225" x2="225" y1="721.0898" y2="731.0898"/><line style="stroke: #A80036; stroke-width: 1.0;" x1="235" x2="225" y1="731.0898" y2="731.0898"/><text fill="#000000" font-family="sans-serif" font-size="13" lengthAdjust="spacingAndGlyphs" textLength="143" x="26" y="739.585">Validate and join results,</text><text fill="#000000" font-family="sans-serif" font-size="13" lengthAdjust="spacingAndGlyphs" textLength="190" x="30" y="755.9365">this will mimic current processes</text><rect fill="#FEFECE" filter="url(#f1)" height="35.0938" rx="12.5" ry="12.5" style="stroke: #A80036; stroke-width: 1.5;" width="112" x="255" y="724.8945"/><text fill="#000000" font-family="sans-serif" font-size="12" lengthAdjust="spacingAndGlyphs" textLength="92" x="265" y="747.3516">Post-Processing</text><polygon fill="#FBFB77" filter="url(#f1)" points="358,808.1641,358,834.5156,574,834.5156,574,818.1641,564,808.1641,358,808.1641" style="stroke: #A80036; stroke-width: 1.0;"/><polygon fill="#FBFB77" points="358,808.1641,358,817.3398,338,821.3398,358,825.3398,358,834.5156,574,834.5156,574,818.1641,564,808.1641,358,808.1641" style="stroke: #A80036; stroke-width: 1.0;"/><line style="stroke: #A80036; stroke-width: 1.0;" x1="564" x2="564" y1="808.1641" y2="818.1641"/><line style="stroke: #A80036; stroke-width: 1.0;" x1="574" x2="564" y1="818.1641" y2="818.1641"/><text fill="#000000" font-family="sans-serif" font-size="13" lengthAdjust="spacingAndGlyphs" textLength="195" x="364" y="826.6592">Check client output requirements.</text><rect fill="#FEFECE" filter="url(#f1)" height="35.0938" rx="12.5" ry="12.5" style="stroke: #A80036; stroke-width: 1.5;" width="54" x="284" y="803.793"/><text fill="#000000" font-family="sans-serif" font-size="12" lengthAdjust="spacingAndGlyphs" textLength="34" x="294" y="826.25">Export</text><ellipse cx="311" cy="868.8867" fill="#FFFFFF" filter="url(#f1)" rx="10" ry="10" style="stroke: #000000; stroke-width: 1.5;"/><line style="stroke: #000000; stroke-width: 2.5;" x1="304.8128" x2="317.1872" y1="862.6995" y2="875.0739"/><line style="stroke: #000000; stroke-width: 2.5;" x1="317.1872" x2="304.8128" y1="862.6995" y2="875.0739"/><line style="stroke: #A80036; stroke-width: 1.5;" x1="311" x2="311" y1="65.2188" y2="85.2188"/><polygon fill="#A80036" points="307,75.2188,311,85.2188,315,75.2188,311,79.2188" style="stroke: #A80036; stroke-width: 1.0;"/><line style="stroke: #A80036; stroke-width: 1.5;" x1="311" x2="311" y1="230.0801" y2="265.0801"/><polygon fill="#A80036" points="307,255.0801,311,265.0801,315,255.0801,311,259.0801" style="stroke: #A80036; stroke-width: 1.0;"/><line style="stroke: #A80036; stroke-width: 1.5;" x1="311" x2="311" y1="300.1738" y2="335.1738"/><polygon fill="#A80036" points="307,325.1738,311,335.1738,315,325.1738,311,329.1738" style="stroke: #A80036; stroke-width: 1.0;"/><line style="stroke: #A80036; stroke-width: 1.5;" x1="311" x2="311" y1="120.3125" y2="194.9863"/><polygon fill="#A80036" points="307,184.9863,311,194.9863,315,184.9863,311,188.9863" style="stroke: #A80036; stroke-width: 1.0;"/><line style="stroke: #A80036; stroke-width: 1.5;" x1="222" x2="207" y1="520.6836" y2="520.6836"/><line style="stroke: #A80036; stroke-width: 1.5;" x1="207" x2="207" y1="520.6836" y2="554.2836"/><polygon fill="#A80036" points="203,544.2836,207,554.2836,211,544.2836,207,548.2836" style="stroke: #A80036; stroke-width: 1.0;"/><line style="stroke: #A80036; stroke-width: 1.5;" x1="400" x2="415" y1="520.6836" y2="520.6836"/><line style="stroke: #A80036; stroke-width: 1.5;" x1="415" x2="415" y1="520.6836" y2="574.4398"/><polygon fill="#A80036" points="411,564.4398,415,574.4398,419,564.4398,415,568.4398" style="stroke: #A80036; stroke-width: 1.0;"/><line style="stroke: #A80036; stroke-width: 1.5;" x1="207" x2="207" y1="589.3773" y2="674.0898"/><line style="stroke: #A80036; stroke-width: 1.5;" x1="207" x2="299" y1="674.0898" y2="674.0898"/><polygon fill="#A80036" points="289,670.0898,299,674.0898,289,678.0898,293,674.0898" style="stroke: #A80036; stroke-width: 1.0;"/><line style="stroke: #A80036; stroke-width: 1.5;" x1="415" x2="415" y1="609.5336" y2="674.0898"/><line style="stroke: #A80036; stroke-width: 1.5;" x1="415" x2="323" y1="674.0898" y2="674.0898"/><polygon fill="#A80036" points="333,670.0898,323,674.0898,333,678.0898,329,674.0898" style="stroke: #A80036; stroke-width: 1.0;"/><line style="stroke: #A80036; stroke-width: 1.5;" x1="311" x2="311" y1="473.6836" y2="508.6836"/><polygon fill="#A80036" points="307,498.6836,311,508.6836,315,498.6836,311,502.6836" style="stroke: #A80036; stroke-width: 1.0;"/><line style="stroke: #A80036; stroke-width: 1.5;" x1="311" x2="311" y1="686.0898" y2="724.8945"/><polygon fill="#A80036" points="307,714.8945,311,724.8945,315,714.8945,311,718.8945" style="stroke: #A80036; stroke-width: 1.0;"/><line style="stroke: #A80036; stroke-width: 1.5;" x1="311" x2="311" y1="370.2676" y2="438.5898"/><polygon fill="#A80036" points="307,428.5898,311,438.5898,315,428.5898,311,432.5898" style="stroke: #A80036; stroke-width: 1.0;"/><line style="stroke: #A80036; stroke-width: 1.5;" x1="311" x2="311" y1="759.9883" y2="803.793"/><polygon fill="#A80036" points="307,793.793,311,803.793,315,793.793,311,797.793" style="stroke: #A80036; stroke-width: 1.0;"/><line style="stroke: #A80036; stroke-width: 1.5;" x1="311" x2="311" y1="838.8867" y2="858.8867"/><polygon fill="#A80036" points="307,848.8867,311,858.8867,315,848.8867,311,852.8867" style="stroke: #A80036; stroke-width: 1.0;"/></g></svg>